<?xml version="1.0" encoding="UTF-8"?>
<svg xmlns="http://www.w3.org/2000/svg" xmlns:xlink="http://www.w3.org/1999/xlink" width="3000" height="3000" viewBox="0 0 3000 3000">
<rect x="-300" y="-300" width="3600" height="3600" fill="rgb(100%, 100%, 100%)" fill-opacity="1"/>
<path fill-rule="nonzero" fill="rgb(0%, 0%, 0%)" fill-opacity="1" d="M 729.503906 543.910156 C 729.503906 543.910156 348.726562 896.488281 844.78125 1333.859375 C 596.113281 1897.320312 1142.691406 2037.210938 1500 2456.09375 C 1857.308594 2037.210938 2403.890625 1897.320312 2155.21875 1333.859375 C 2651.28125 896.488281 2270.5 543.910156 2270.5 543.910156 C 2368.859375 1079.578125 1543.558594 1379.949219 1574.320312 1976 L 1616.121094 1955.769531 C 1701.800781 1712.988281 1875.660156 1546.191406 1987.628906 1458.691406 C 2124.078125 1864.410156 1707 1960.941406 1500 2253.8125 C 1293 1960.941406 875.917969 1864.410156 1012.371094 1458.691406 C 1124.339844 1546.191406 1298.199219 1712.988281 1383.878906 1955.769531 L 1425.679688 1976 C 1456.441406 1379.949219 631.136719 1079.578125 729.503906 543.910156 "/>
</svg>
